<svg xmlns="http://www.w3.org/2000/svg" width="149.627" height="47.608" viewBox="0 0 149.627 47.608"><path d="M12.959 7.094L6.59 13.312a5.02 5.02 0 0 0 0 7.218l6.369 6.218a4.934 4.934 0 0 1 0 7.094L3.09 24.206a10.132 10.132 0 0 1 0-14.569L12.959.001a4.934 4.934 0 0 1 0 7.093z" fill="#ffffff"/><path d="M13.036 40.515l6.368-6.218a5.018 5.018 0 0 0 0-7.217l-6.368-6.219a4.931 4.931 0 0 1 0-7.093l9.869 9.636a10.131 10.131 0 0 1 0 14.568l-9.869 9.635a4.931 4.931 0 0 1 0-7.092zM91.604 17.854c-5.99.01-9.884 4.007-9.921 10.182v8.254c0 .822.394 1.8 2.265 1.8 1.8 0 2.174-.978 2.174-1.8v-8.255c0-4.112 2.092-6.666 5.454-6.667h.052c3.367 0 5.46 2.554 5.46 6.666v8.255c0 .822.377 1.8 2.174 1.8 1.872 0 2.265-.978 2.265-1.8v-8.255c-.039-6.173-3.933-10.17-9.923-10.18zM147.854 17.855h-.1c-5.99.01-9.884 4.007-9.921 10.182v8.254c0 .822.393 1.8 2.265 1.8 1.8 0 2.173-.978 2.173-1.8v-8.255c0-4.112 2.093-6.666 5.457-6.666h.065a1.879 1.879 0 0 0 1.3-.521 1.714 1.714 0 0 0 .524-1.234 1.777 1.777 0 0 0-1.763-1.76zM48.293 21.212c-3.122-1.3-5.821-2.421-5.821-4.868 0-2.248 2.024-3.7 5.156-3.7a9.411 9.411 0 0 1 4.91 1.422c.186.1.35.2.5.288a2.649 2.649 0 0 0 1.285.526 2.192 2.192 0 0 0 1.933-2.143c0-.852-.786-1.47-1.635-2.011a13.348 13.348 0 0 0-6.989-1.9c-5.685 0-9.5 3.108-9.5 7.733 0 4.873 4.323 6.682 8.136 8.276 3.335 1.4 6.216 2.6 6.216 5.436 0 2.575-2.3 4.3-5.729 4.3a9.007 9.007 0 0 1-5.291-1.757l-.4-.264a2.8 2.8 0 0 0-1.572-.688 2.2 2.2 0 0 0-1.933 2.1c0 .713.488 1.37 1.578 2.131a12.973 12.973 0 0 0 7.575 2.292c6.053 0 10.12-3.35 10.12-8.334-.007-5.291-4.54-7.176-8.539-8.839zM65.038 29.407h9.844c1.588 0 3.209-.335 3.209-2.832a8.3 8.3 0 0 0-8.623-8.721c-5.56 0-9.153 4.031-9.153 10.269s3.726 10.1 9.725 10.1a11.137 11.137 0 0 0 6.24-1.682c.979-.621 1.415-1.215 1.415-1.924a1.891 1.891 0 0 0-1.888-1.887 3.194 3.194 0 0 0-1.617.721l-.091.059a7 7 0 0 1-3.883 1.025c-3.128 0-4.992-1.584-5.54-4.709a.344.344 0 0 1 .081-.288.374.374 0 0 1 .281-.131zm-.315-3.7c.515-2.823 2.17-4.377 4.657-4.377 2.563 0 4.234 1.644 4.467 4.4a.345.345 0 0 1-.1.268.358.358 0 0 1-.265.114h-8.419a.355.355 0 0 1-.269-.122.337.337 0 0 1-.067-.286zM108.095 9.425a2.64 2.64 0 1 0 2.724 2.616 2.584 2.584 0 0 0-2.724-2.616zM108.051 18.073c-1.742 0-2.107.979-2.107 1.8v16.421c0 .822.381 1.8 2.2 1.8 1.741 0 2.107-.978 2.107-1.8V19.873c-.005-.825-.385-1.8-2.2-1.8zM124.086 17.854c-6.041 0-9.944 4.031-9.944 10.269 0 6.185 3.869 10.182 9.857 10.182 6.066 0 9.987-4.03 9.987-10.268 0-6.186-3.885-10.183-9.9-10.183zm0 16.893c-3.346 0-5.508-2.633-5.508-6.71 0-4.113 2.094-6.668 5.465-6.668s5.464 2.588 5.464 6.754c0 4.087-2.077 6.624-5.421 6.624z" fill="#ffffff"/></svg>